<?xml version="1.0" encoding="UTF-8"?>
<svg xmlns="http://www.w3.org/2000/svg" viewBox="0 0 120 96" width="120" height="96" role="img" aria-label="Browserfly logo">
  <defs>
    <linearGradient id="wt" x1="0" y1="0" x2="1" y2="1">
      <stop offset="0%" stop-color="#6C63FF"/>
      <stop offset="100%" stop-color="#00D4FF"/>
    </linearGradient>
    <linearGradient id="wb" x1="0" y1="0" x2="1" y2="1">
      <stop offset="0%" stop-color="#FF6B9D"/>
      <stop offset="100%" stop-color="#6C63FF"/>
    </linearGradient>
    <filter id="g"><feGaussianBlur stdDeviation="2" result="b"/><feMerge><feMergeNode in="b"/><feMergeNode in="SourceGraphic"/></feMerge></filter>
  </defs>
  <style>@media(prefers-reduced-motion:reduce){*{animation:none!important}}</style>
  <path d="M60,50 C45,35 18,18 8,28 C2,36 18,48 38,52Z" fill="url(#wt)" opacity=".9" filter="url(#g)">
    <animateTransform attributeName="transform" type="rotate" values="-14,60,50;0,60,50;-14,60,50" dur="1.7s" repeatCount="indefinite"/>
  </path>
  <path d="M60,50 C75,35 102,18 112,28 C118,36 102,48 82,52Z" fill="url(#wt)" opacity=".9" filter="url(#g)">
    <animateTransform attributeName="transform" type="rotate" values="14,60,50;0,60,50;14,60,50" dur="1.7s" begin=".12s" repeatCount="indefinite"/>
  </path>
  <path d="M60,54 C40,60 20,72 18,84 C16,90 36,90 52,76Z" fill="url(#wb)" opacity=".85" filter="url(#g)">
    <animateTransform attributeName="transform" type="rotate" values="-9,60,54;0,60,54;-9,60,54" dur="1.7s" repeatCount="indefinite"/>
  </path>
  <path d="M60,54 C80,60 100,72 102,84 C104,90 84,90 68,76Z" fill="url(#wb)" opacity=".85" filter="url(#g)">
    <animateTransform attributeName="transform" type="rotate" values="9,60,54;0,60,54;9,60,54" dur="1.7s" begin=".12s" repeatCount="indefinite"/>
  </path>
  <ellipse cx="60" cy="52" rx="3" ry="20" fill="#0A0A0F"/>
  <ellipse cx="60" cy="52" rx="2" ry="18" fill="#6C63FF" opacity=".7">
    <animate attributeName="opacity" values=".7;1;.7" dur="2s" repeatCount="indefinite"/>
  </ellipse>
  <circle cx="60" cy="33" r="5" fill="#6C63FF" filter="url(#g)">
    <animate attributeName="r" values="5;6;5" dur="2s" repeatCount="indefinite"/>
  </circle>
  <path d="M58,30 Q50,20 45,13" fill="none" stroke="#00D4FF" stroke-width="1.2">
    <animateTransform attributeName="transform" type="rotate" values="-4,58,30;4,58,30;-4,58,30" dur="2.4s" repeatCount="indefinite"/>
  </path>
  <circle cx="45" cy="13" r="2" fill="#FF6B9D"><animate attributeName="r" values="2;3;2" dur="2.4s" repeatCount="indefinite"/></circle>
  <path d="M62,30 Q70,20 75,13" fill="none" stroke="#00D4FF" stroke-width="1.2">
    <animateTransform attributeName="transform" type="rotate" values="4,62,30;-4,62,30;4,62,30" dur="2.4s" repeatCount="indefinite"/>
  </path>
  <circle cx="75" cy="13" r="2" fill="#FF6B9D"><animate attributeName="r" values="2;3;2" dur="2.4s" begin=".4s" repeatCount="indefinite"/></circle>
</svg>
